<svg xmlns="http://www.w3.org/2000/svg">

  <symbol version="1.1" id="icon-plus"
    xmlns="http://www.w3.org/2000/svg"
    xmlnsXlink="http://www.w3.org/1999/xlink" x="0px" y="0px" viewBox="0 0 512 512" xmlSpace="preserve">
    <g>
      <g>
        <path d="M501.801,202.822H309.177V10.199C309.177,4.566,304.609,0,298.977,0h-85.956c-5.632,0-10.199,4.566-10.199,10.199v192.623
         H10.199C4.567,202.822,0,207.389,0,213.022v85.956c0,5.633,4.567,10.199,10.199,10.199h192.624v192.624
         c0,5.633,4.567,10.199,10.199,10.199h85.956c5.632,0,10.199-4.566,10.199-10.199V309.177h192.623
         c5.632,0,10.199-4.566,10.199-10.199v-85.956C512,207.389,507.433,202.822,501.801,202.822z M491.602,288.778H298.977
         c-5.632,0-10.199,4.566-10.199,10.199v192.624h-65.557V298.977c0-5.633-4.567-10.199-10.199-10.199H20.398v-65.557h192.624
         c5.632,0,10.199-4.566,10.199-10.199V20.398h65.557v192.623c0,5.633,4.567,10.199,10.199,10.199h192.623V288.778z" />
      </g>
    </g>
    <g>
      <g>
        <path d="M425.307,258.04H322.24c-5.632,0-10.199,4.566-10.199,10.199c0,5.633,4.567,10.199,10.199,10.199h103.067
         c5.632,0,10.199-4.566,10.199-10.199C435.506,262.606,430.939,258.04,425.307,258.04z" />
      </g>
    </g>

    <g>
      <path d="M466.104,258.04h-6.901c-5.632,0-10.199,4.566-10.199,10.199c0,5.633,4.567,10.199,10.199,10.199h6.901
         c5.632,0,10.199-4.566,10.199-10.199C476.303,262.606,471.736,258.04,466.104,258.04z" />
    </g>
  </symbol>

  <symbol id="icon-close-task" clip-rule="evenodd" fill-rule="evenodd" stroke-linejoin="round" stroke-miterlimit="2" viewBox="0 0 24 24"
    xmlns="http://www.w3.org/2000/svg">
    <path d="m12 10.93 5.719-5.72c.146-.146.339-.219.531-.219.404 0 .75.324.75.749 0 .193-.073.385-.219.532l-5.72 5.719 5.719 5.719c.147.147.22.339.22.531 0 .427-.349.75-.75.75-.192 0-.385-.073-.531-.219l-5.719-5.719-5.719 5.719c-.146.146-.339.219-.531.219-.401 0-.75-.323-.75-.75 0-.192.073-.384.22-.531l5.719-5.719-5.72-5.719c-.146-.147-.219-.339-.219-.532 0-.425.346-.749.75-.749.192 0 .385.073.531.219z"/>
  </symbol>

</svg>